<?xml version="1.0" standalone="no"?>
<!DOCTYPE svg PUBLIC "-//W3C//DTD SVG 20010904//EN"
 "http://www.w3.org/TR/2001/REC-SVG-20010904/DTD/svg10.dtd">
<svg version="1.0" xmlns="http://www.w3.org/2000/svg"
 width="1500.000000pt" height="1500.000000pt" viewBox="0 0 1500.000000 1500.000000"
 preserveAspectRatio="xMidYMid meet">

<g transform="translate(0.000000,1500.000000) scale(0.100000,-0.100000)"
fill="#000000" stroke="none">
<path d="M2897 8809 c-58 -30 -92 -90 -92 -160 0 -32 3 -60 5 -62 3 -2 26 -7
52 -9 l46 -5 -5 52 c-7 70 21 133 78 174 l42 31 -44 0 c-24 -1 -61 -10 -82
-21z"/>
<path d="M4745 8721 c-130 -37 -247 -117 -315 -216 -52 -76 -82 -185 -82 -299
0 -121 20 -184 87 -275 90 -123 242 -211 514 -301 253 -83 364 -155 421 -275
37 -78 39 -137 6 -218 -42 -102 -134 -184 -261 -230 -79 -29 -62 -34 49 -13
270 52 424 289 311 482 -52 89 -195 182 -360 234 -226 72 -335 120 -432 191
-124 92 -191 190 -218 319 -14 65 -14 81 0 160 8 48 20 103 27 121 14 42 71
134 107 173 42 47 153 113 232 140 l74 25 -50 0 c-27 -1 -77 -9 -110 -18z"/>
<path d="M7080 8722 c0 -11 -7 -25 -15 -32 -13 -11 -15 -129 -15 -949 l0 -937
32 -42 c24 -32 39 -42 60 -42 l28 0 -2 1008 -3 1007 -42 3 c-37 3 -43 0 -43
-16z"/>
<path d="M10715 8725 c-346 -76 -644 -379 -738 -750 -17 -65 -20 -112 -21
-255 0 -159 3 -184 27 -274 110 -402 458 -709 842 -741 47 -4 48 -4 15 5 -142
41 -229 81 -334 153 -122 83 -265 248 -336 387 -37 74 -75 189 -91 280 -17 96
-17 295 0 385 47 253 180 470 390 637 81 65 247 150 329 168 28 7 52 14 52 16
0 8 -76 2 -135 -11z"/>
<path d="M11845 8721 c-164 -48 -275 -134 -342 -265 -42 -83 -56 -144 -57
-251 0 -84 4 -110 24 -163 69 -176 250 -308 552 -402 328 -103 474 -227 472
-400 -2 -144 -108 -270 -279 -333 -77 -29 -72 -32 25 -17 231 36 384 195 367
383 -7 76 -44 136 -122 199 -77 63 -159 101 -340 160 -304 99 -458 205 -540
372 -36 72 -40 87 -43 175 -7 167 38 293 143 397 65 66 110 94 220 136 l70 27
-45 0 c-25 0 -72 -8 -105 -18z"/>
<path d="M5747 8724 c-4 -4 -7 -457 -7 -1006 l0 -998 55 0 c48 0 55 3 60 23 7
27 2 1964 -5 1970 -10 9 -96 18 -103 11z"/>
<path d="M6730 8717 c-25 -31 -368 -475 -608 -789 l-82 -107 0 -71 0 -72 33
40 c34 42 51 64 195 252 48 63 165 214 258 335 251 324 315 408 312 410 -2 1
-24 5 -50 8 -32 5 -51 3 -58 -6z"/>
<path d="M7417 8724 c-4 -4 -7 -457 -7 -1006 l0 -998 60 0 60 0 0 1000 0 1000
-24 0 c-13 0 -36 3 -52 6 -16 3 -32 2 -37 -2z"/>
<path d="M8565 8718 c-3 -8 -4 -338 -3 -733 l3 -720 55 -95 55 -95 3 819 c1
451 1 820 0 821 -2 2 -27 6 -55 10 -41 5 -54 4 -58 -7z"/>
<path d="M8945 8718 c-3 -8 -5 -50 -3 -93 l3 -77 55 -2 55 -1 3 88 c2 78 1 87
-15 87 -10 0 -35 3 -55 6 -28 5 -39 3 -43 -8z"/>
<path d="M3770 8590 c0 -16 5 -30 10 -30 6 0 10 14 10 30 0 17 -4 30 -10 30
-5 0 -10 -13 -10 -30z"/>
<path d="M3209 8573 c-12 -33 -1 -45 31 -30 l25 12 -23 22 -23 23 -10 -27z"/>
<path d="M2695 8568 c-40 -22 -88 -74 -107 -118 -14 -30 -22 -76 -26 -138 -5
-99 -2 -95 -67 -104 -15 -2 -21 -12 -22 -38 -2 -19 -8 -68 -15 -108 -12 -81
-8 -91 42 -92 l25 0 -24 -19 c-24 -18 -24 -21 -17 -120 6 -91 5 -104 -12 -125
-16 -22 -17 -33 -9 -103 6 -52 5 -96 -2 -132 -6 -30 -11 -82 -11 -115 0 -54
-5 -68 -36 -116 -47 -72 -74 -125 -74 -147 0 -10 -12 -43 -26 -73 -20 -43 -24
-64 -20 -98 4 -31 -2 -70 -19 -132 -43 -151 -34 -180 56 -180 34 0 40 3 31 12
-18 18 -14 74 12 168 16 59 22 101 19 135 -4 41 0 59 21 99 14 27 26 61 26 76
0 16 21 60 52 106 52 78 52 80 62 184 10 118 11 205 2 261 -5 31 -2 43 15 60
21 21 21 25 11 113 -11 85 -11 93 8 119 l21 27 -26 0 c-14 0 -28 6 -31 13 -2
7 1 60 9 117 l13 105 41 8 41 8 4 92 c3 76 9 103 32 150 15 32 41 67 57 79 16
12 29 25 29 30 0 12 -62 9 -85 -4z"/>
<path d="M5090 8553 c37 -6 131 -44 165 -66 17 -11 46 -35 66 -54 l35 -33 22
25 c27 31 27 37 0 54 -68 43 -208 83 -282 80 -26 -2 -27 -2 -6 -6z"/>
<path d="M11155 8532 c85 -30 133 -53 178 -84 24 -17 28 -18 33 -4 10 26 -4
46 -41 62 -47 19 -137 41 -200 48 -48 5 -47 5 30 -22z"/>
<path d="M12200 8553 c47 -9 167 -70 207 -107 22 -20 45 -36 51 -36 11 0 42
38 42 51 0 27 -217 100 -290 97 -27 0 -30 -2 -10 -5z"/>
<path d="M9796 8532 c-10 -17 -75 -142 -181 -347 -59 -115 -111 -214 -115
-220 -4 -5 -53 -100 -110 -210 -57 -110 -124 -240 -150 -290 -45 -87 -79 -152
-279 -536 -50 -97 -91 -184 -91 -193 0 -13 11 -16 49 -16 l49 0 58 113 c31 61
69 135 84 162 15 28 71 136 125 240 54 105 110 213 125 240 15 28 65 122 110
210 45 88 108 210 140 270 32 61 97 187 145 280 48 94 99 190 113 215 49 90
49 90 -13 90 -29 0 -56 -4 -59 -8z"/>
<path d="M3431 8391 c-6 -10 -7 -21 -4 -25 3 -3 -6 -6 -20 -6 -25 0 -26 -2
-15 -25 6 -14 15 -25 19 -25 14 0 38 42 32 56 -3 8 1 14 11 14 9 0 16 7 16 15
0 21 -27 19 -39 -4z"/>
<path d="M7712 8258 c4 -89 6 -96 51 -171 26 -43 47 -80 47 -81 0 -2 23 -43
52 -92 86 -150 346 -603 519 -906 l164 -287 58 -1 58 0 -24 43 c-14 23 -77
134 -142 247 -133 231 -263 458 -292 510 -11 19 -80 139 -153 265 -72 127
-175 305 -227 398 -53 92 -100 167 -106 167 -6 0 -8 -36 -5 -92z"/>
<path d="M3197 8131 c-5 -22 19 -35 89 -51 73 -17 70 -1 -6 36 -40 19 -73 34
-75 34 -1 0 -5 -9 -8 -19z"/>
<path d="M6173 7535 c-13 -19 -23 -37 -23 -40 0 -3 48 -66 108 -141 59 -75
136 -173 172 -219 254 -322 311 -394 324 -404 8 -7 36 -11 65 -9 l50 3 -77 97
c-42 53 -106 134 -142 179 -36 46 -110 140 -165 210 -56 70 -114 144 -130 164
-66 84 -156 195 -158 195 -1 0 -12 -16 -24 -35z"/>
<path d="M2867 7506 c-14 -21 -14 -25 0 -38 8 -9 30 -42 47 -74 29 -53 37 -60
76 -70 57 -14 67 -31 50 -83 -15 -47 -8 -148 15 -225 21 -67 19 -136 -6 -224
-11 -40 -18 -80 -15 -88 4 -9 21 -14 51 -14 42 0 45 2 45 28 1 15 8 45 16 67
27 74 29 153 5 245 -24 95 -27 168 -9 217 16 45 2 66 -47 74 -41 7 -54 20 -87
84 -27 53 -47 75 -69 75 -10 0 -26 11 -37 25 l-20 25 -15 -24z"/>
<path d="M4430 7124 c-25 -9 -49 -20 -54 -25 -6 -5 -18 -9 -28 -9 -10 0 -18
-2 -18 -4 0 -2 15 -33 32 -68 47 -91 144 -183 249 -236 86 -43 218 -83 273
-81 25 0 19 5 -34 23 -167 57 -295 154 -364 278 -20 36 -36 70 -36 75 0 6 14
16 30 23 31 13 36 33 9 37 -8 1 -34 -5 -59 -13z"/>
<path d="M11503 7113 c-35 -14 -63 -31 -63 -39 0 -27 23 -62 36 -57 9 3 14 -2
14 -16 0 -72 140 -196 285 -251 70 -26 177 -50 220 -49 23 0 18 4 -24 15 -168
45 -319 161 -400 307 -28 50 -27 59 9 81 31 18 32 36 2 36 -9 -1 -45 -12 -79
-27z"/>
<path d="M11283 6969 c-39 -21 -98 -46 -130 -55 -72 -22 -46 -30 45 -14 89 15
159 46 166 73 9 36 -6 36 -81 -4z"/>
<path d="M11058 6883 c7 -3 16 -2 19 1 4 3 -2 6 -13 5 -11 0 -14 -3 -6 -6z"/>
<path d="M3205 6680 c-4 -6 11 -10 41 -10 54 0 55 4 2 14 -21 4 -39 2 -43 -4z"/>
</g>
</svg>
